<?xml version="1.0"?>
<svg width="136" height="20" xmlns="http://www.w3.org/2000/svg" xmlns:svg="http://www.w3.org/2000/svg">
 <g>
  <title>Layer 1</title>
  <line id="svg_46" y2="13.25" x2="14" y1="13.25" x1="0" stroke-miterlimit="10" stroke-width="2" stroke="#5BC0DE" fill="#5BC0DE"/>
  <line id="svg_2" y2="10" x2="13" y1="13" x1="13" stroke-miterlimit="10" stroke-width="2" stroke="#5BC0DE" fill="#5BC0DE"/>
  <line id="svg_3" y2="11" x2="23" y1="11" x1="13" stroke-miterlimit="10" stroke-width="2" stroke="#5BC0DE" fill="#5BC0DE"/>
  <line stroke="#5BC0DE" id="svg_4" y2="17" x2="22" y1="11" x1="22" stroke-miterlimit="10" stroke-width="2" fill="#5BC0DE"/>
  <line id="svg_5" y2="16" x2="27" y1="16" x1="22" stroke-miterlimit="10" stroke-width="2" stroke="#5BC0DE" fill="#5BC0DE"/>
  <line id="svg_6" y2="10" x2="26" y1="16" x1="26" stroke-miterlimit="10" stroke-width="2" stroke="#5BC0DE" fill="#5BC0DE"/>
  <line id="svg_7" y2="11" x2="32" y1="11" x1="26" stroke-miterlimit="10" stroke-width="2" stroke="#5BC0DE" fill="#5BC0DE"/>
  <line stroke="#5BC0DE" id="svg_8" y2="15" x2="31" y1="11" x1="31" stroke-miterlimit="10" stroke-width="2" fill="#5BC0DE"/>
  <line id="svg_9" y2="14" x2="36" y1="14" x1="31" stroke-miterlimit="10" stroke-width="2" stroke="#5BC0DE" fill="#5BC0DE"/>
  <line id="svg_10" y2="7" x2="35" y1="14" x1="35" stroke-miterlimit="10" stroke-width="2" stroke="#5BC0DE" fill="#5BC0DE"/>
  <line id="svg_11" y2="8" x2="40" y1="8" x1="35" stroke-miterlimit="10" stroke-width="2" stroke="#5BC0DE" fill="#5BC0DE"/>
  <line id="svg_12" y2="4" x2="39" y1="8" x1="39" stroke-miterlimit="10" stroke-width="2" stroke="#5BC0DE" fill="#5BC0DE"/>
  <line id="svg_13" y2="5" x2="45" y1="5" x1="39" stroke-miterlimit="10" stroke-width="2" stroke="#5BC0DE" fill="#5BC0DE"/>
  <line stroke="#5BC0DE" id="svg_14" y2="10" x2="44" y1="5" x1="44" stroke-miterlimit="10" stroke-width="2" fill="#5BC0DE"/>
  <line id="svg_15" y2="9" x2="49" y1="9" x1="44" stroke-miterlimit="10" stroke-width="2" stroke="#5BC0DE" fill="#5BC0DE"/>
  <line stroke="#5BC0DE" id="svg_16" y2="15" x2="48" y1="9" x1="48" stroke-miterlimit="10" stroke-width="2" fill="#5BC0DE"/>
  <line id="svg_17" y2="14" x2="53" y1="14" x1="48" stroke-miterlimit="10" stroke-width="2" stroke="#5BC0DE" fill="#5BC0DE"/>
  <line id="svg_18" y2="10" x2="52" y1="14" x1="52" stroke-miterlimit="10" stroke-width="2" stroke="#5BC0DE" fill="#5BC0DE"/>
  <line id="svg_19" y2="11" x2="58" y1="11" x1="52" stroke-miterlimit="10" stroke-width="2" stroke="#5BC0DE" fill="#5BC0DE"/>
  <line stroke="#5BC0DE" id="svg_20" y2="16" x2="57" y1="11" x1="57" stroke-miterlimit="10" stroke-width="2" fill="#5BC0DE"/>
  <line id="svg_21" y2="15" x2="64" y1="15" x1="57" stroke-miterlimit="10" stroke-width="2" stroke="#5BC0DE" fill="#5BC0DE"/>
  <line id="svg_22" y2="0" x2="63" y1="15" x1="63" stroke-miterlimit="10" stroke-width="2" stroke="#5BC0DE" fill="#5BC0DE"/>
  <line id="svg_23" y2="1" x2="68" y1="1" x1="63" stroke-miterlimit="10" stroke-width="2" stroke="#5BC0DE" fill="#5BC0DE"/>
  <line stroke="#5BC0DE" id="svg_24" y2="16" x2="67" y1="1" x1="67" stroke-miterlimit="10" stroke-width="2" fill="#5BC0DE"/>
  <line id="svg_25" y2="15" x2="72" y1="15" x1="67" stroke-miterlimit="10" stroke-width="2" stroke="#5BC0DE" fill="#5BC0DE"/>
  <line id="svg_26" y2="7" x2="71" y1="15" x1="71" stroke-miterlimit="10" stroke-width="2" stroke="#5BC0DE" fill="#5BC0DE"/>
  <line id="svg_27" y2="8" x2="76" y1="8" x1="71" stroke-miterlimit="10" stroke-width="2" stroke="#5BC0DE" fill="#5BC0DE"/>
  <line stroke="#5BC0DE" id="svg_28" y2="14" x2="75" y1="8" x1="75" stroke-miterlimit="10" stroke-width="2" fill="#5BC0DE"/>
  <line id="svg_29" y2="13" x2="82" y1="13" x1="75" stroke-miterlimit="10" stroke-width="2" stroke="#5BC0DE" fill="#5BC0DE"/>
  <line stroke="#5BC0DE" id="svg_30" y2="17" x2="81" y1="13" x1="81" stroke-miterlimit="10" stroke-width="2" fill="#5BC0DE"/>
  <line id="svg_31" y2="16" x2="97" y1="16" x1="81" stroke-miterlimit="10" stroke-width="2" stroke="#5BC0DE" fill="#5BC0DE"/>
  <line id="svg_32" y2="11" x2="96" y1="16" x1="96" stroke-miterlimit="10" stroke-width="2" stroke="#5BC0DE" fill="#5BC0DE"/>
  <line id="svg_33" y2="12" x2="104" y1="12" x1="96" stroke-miterlimit="10" stroke-width="2" stroke="#5BC0DE" fill="#5BC0DE"/>
  <line id="svg_34" y2="8" x2="103" y1="12" x1="103" stroke-miterlimit="10" stroke-width="2" stroke="#5BC0DE" fill="#5BC0DE"/>
  <line id="svg_35" y2="9" x2="112" y1="9" x1="103" stroke-miterlimit="10" stroke-width="2" stroke="#5BC0DE" fill="#5BC0DE"/>
  <line stroke="#5BC0DE" id="svg_36" y2="15" x2="111" y1="9" x1="111" stroke-miterlimit="10" stroke-width="2" fill="#5BC0DE"/>
  <line id="svg_37" y2="14" x2="118" y1="14" x1="111" stroke-miterlimit="10" stroke-width="2" stroke="#5BC0DE" fill="#5BC0DE"/>
  <line id="svg_38" y2="1" x2="117" y1="14" x1="117" stroke-miterlimit="10" stroke-width="2" stroke="#5BC0DE" fill="#5BC0DE"/>
  <line id="svg_39" y2="2" x2="122" y1="2" x1="117" stroke-miterlimit="10" stroke-width="2" stroke="#5BC0DE" fill="#5BC0DE"/>
  <line stroke="#5BC0DE" id="svg_40" y2="10" x2="121" y1="2" x1="121" stroke-miterlimit="10" stroke-width="2" fill="#5BC0DE"/>
  <line id="svg_41" y2="9" x2="127" y1="9" x1="121" stroke-miterlimit="10" stroke-width="2" stroke="#5BC0DE" fill="#5BC0DE"/>
  <line id="svg_42" y2="13" x2="126" y1="9" x1="126" stroke-miterlimit="10" stroke-width="2" stroke="#5BC0DE" fill="#5BC0DE"/>
  <line stroke="#5BC0DE" id="svg_47" y2="13.142857" x2="136.000004" y1="13.142857" x1="125.000006" stroke-miterlimit="10" stroke-width="2" fill="#5BC0DE"/>
 </g>
</svg>