<?xml version="1.0" encoding="utf-8"?>
<!-- Generator: Adobe Illustrator 16.0.0, SVG Export Plug-In . SVG Version: 6.00 Build 0)  -->
<!DOCTYPE svg PUBLIC "-//W3C//DTD SVG 1.1//EN" "http://www.w3.org/Graphics/SVG/1.1/DTD/svg11.dtd">
<svg version="1.1" id="Layer_1" xmlns="http://www.w3.org/2000/svg" xmlns:xlink="http://www.w3.org/1999/xlink" x="0px" y="0px"
	 width="136px" height="20px" viewBox="0 0 136 20" enable-background="new 0 0 136 20" xml:space="preserve">
<line fill="#5BC0DE" stroke="#5BC0DE" stroke-width="2" stroke-miterlimit="10" x1="0" y1="13" x2="14" y2="13"/>
<line fill="#5BC0DE" stroke="#5BC0DE" stroke-width="2" stroke-miterlimit="10" x1="13" y1="13" x2="13" y2="10"/>
<line fill="#5BC0DE" stroke="#5BC0DE" stroke-width="2" stroke-miterlimit="10" x1="13" y1="11" x2="23" y2="11"/>
<line fill="#5BC0DE" stroke="#5BC0DE" stroke-width="2" stroke-miterlimit="10" x1="22" y1="11" x2="22" y2="15"/>
<line fill="#5BC0DE" stroke="#5BC0DE" stroke-width="2" stroke-miterlimit="10" x1="22" y1="16" x2="27" y2="16"/>
<line fill="#5BC0DE" stroke="#5BC0DE" stroke-width="2" stroke-miterlimit="10" x1="26" y1="16" x2="26" y2="10"/>
<line fill="#5BC0DE" stroke="#5BC0DE" stroke-width="2" stroke-miterlimit="10" x1="26" y1="11" x2="32" y2="11"/>
<line fill="#5BC0DE" stroke="#5BC0DE" stroke-width="2" stroke-miterlimit="10" x1="31" y1="11" x2="31" y2="13"/>
<line fill="#5BC0DE" stroke="#5BC0DE" stroke-width="2" stroke-miterlimit="10" x1="31" y1="14" x2="36" y2="14"/>
<line fill="#5BC0DE" stroke="#5BC0DE" stroke-width="2" stroke-miterlimit="10" x1="35" y1="14" x2="35" y2="7"/>
<line fill="#5BC0DE" stroke="#5BC0DE" stroke-width="2" stroke-miterlimit="10" x1="35" y1="8" x2="40" y2="8"/>
<line fill="#5BC0DE" stroke="#5BC0DE" stroke-width="2" stroke-miterlimit="10" x1="39" y1="8" x2="39" y2="4"/>
<line fill="#5BC0DE" stroke="#5BC0DE" stroke-width="2" stroke-miterlimit="10" x1="39" y1="5" x2="45" y2="5"/>
<line fill="#5BC0DE" stroke="#5BC0DE" stroke-width="2" stroke-miterlimit="10" x1="44" y1="5" x2="44" y2="8"/>
<line fill="#5BC0DE" stroke="#5BC0DE" stroke-width="2" stroke-miterlimit="10" x1="44" y1="9" x2="49" y2="9"/>
<line fill="#5BC0DE" stroke="#5BC0DE" stroke-width="2" stroke-miterlimit="10" x1="48" y1="9" x2="48" y2="13"/>
<line fill="#5BC0DE" stroke="#5BC0DE" stroke-width="2" stroke-miterlimit="10" x1="48" y1="14" x2="53" y2="14"/>
<line fill="#5BC0DE" stroke="#5BC0DE" stroke-width="2" stroke-miterlimit="10" x1="52" y1="14" x2="52" y2="10"/>
<line fill="#5BC0DE" stroke="#5BC0DE" stroke-width="2" stroke-miterlimit="10" x1="52" y1="11" x2="58" y2="11"/>
<line fill="#5BC0DE" stroke="#5BC0DE" stroke-width="2" stroke-miterlimit="10" x1="57" y1="11" x2="57" y2="14"/>
<line fill="#5BC0DE" stroke="#5BC0DE" stroke-width="2" stroke-miterlimit="10" x1="57" y1="15" x2="64" y2="15"/>
<line fill="#5BC0DE" stroke="#5BC0DE" stroke-width="2" stroke-miterlimit="10" x1="63" y1="15" x2="63" y2="0"/>
<line fill="#5BC0DE" stroke="#5BC0DE" stroke-width="2" stroke-miterlimit="10" x1="63" y1="1" x2="68" y2="1"/>
<line fill="#5BC0DE" stroke="#5BC0DE" stroke-width="2" stroke-miterlimit="10" x1="67" y1="1" x2="67" y2="14"/>
<line fill="#5BC0DE" stroke="#5BC0DE" stroke-width="2" stroke-miterlimit="10" x1="67" y1="15" x2="72" y2="15"/>
<line fill="#5BC0DE" stroke="#5BC0DE" stroke-width="2" stroke-miterlimit="10" x1="71" y1="15" x2="71" y2="7"/>
<line fill="#5BC0DE" stroke="#5BC0DE" stroke-width="2" stroke-miterlimit="10" x1="71" y1="8" x2="76" y2="8"/>
<line fill="#5BC0DE" stroke="#5BC0DE" stroke-width="2" stroke-miterlimit="10" x1="75" y1="8" x2="75" y2="12"/>
<line fill="#5BC0DE" stroke="#5BC0DE" stroke-width="2" stroke-miterlimit="10" x1="75" y1="13" x2="82" y2="13"/>
<line fill="#5BC0DE" stroke="#5BC0DE" stroke-width="2" stroke-miterlimit="10" x1="81" y1="13" x2="81" y2="15"/>
<line fill="#5BC0DE" stroke="#5BC0DE" stroke-width="2" stroke-miterlimit="10" x1="81" y1="16" x2="97" y2="16"/>
<line fill="#5BC0DE" stroke="#5BC0DE" stroke-width="2" stroke-miterlimit="10" x1="96" y1="16" x2="96" y2="11"/>
<line fill="#5BC0DE" stroke="#5BC0DE" stroke-width="2" stroke-miterlimit="10" x1="96" y1="12" x2="104" y2="12"/>
<line fill="#5BC0DE" stroke="#5BC0DE" stroke-width="2" stroke-miterlimit="10" x1="103" y1="12" x2="103" y2="8"/>
<line fill="#5BC0DE" stroke="#5BC0DE" stroke-width="2" stroke-miterlimit="10" x1="103" y1="9" x2="112" y2="9"/>
<line fill="#5BC0DE" stroke="#5BC0DE" stroke-width="2" stroke-miterlimit="10" x1="111" y1="9" x2="111" y2="13"/>
<line fill="#5BC0DE" stroke="#5BC0DE" stroke-width="2" stroke-miterlimit="10" x1="111" y1="14" x2="118" y2="14"/>
<line fill="#5BC0DE" stroke="#5BC0DE" stroke-width="2" stroke-miterlimit="10" x1="117" y1="14" x2="117" y2="1"/>
<line fill="#5BC0DE" stroke="#5BC0DE" stroke-width="2" stroke-miterlimit="10" x1="117" y1="2" x2="122" y2="2"/>
<line fill="#5BC0DE" stroke="#5BC0DE" stroke-width="2" stroke-miterlimit="10" x1="121" y1="2" x2="121" y2="8"/>
<line fill="#5BC0DE" stroke="#5BC0DE" stroke-width="2" stroke-miterlimit="10" x1="121" y1="9" x2="127" y2="9"/>
<line fill="#5BC0DE" stroke="#5BC0DE" stroke-width="2" stroke-miterlimit="10" x1="126" y1="9" x2="126" y2="13"/>
<line fill="#5BC0DE" stroke="#5BC0DE" stroke-width="2" stroke-miterlimit="10" x1="126" y1="14" x2="132" y2="14"/>
<line fill="#5BC0DE" stroke="#5BC0DE" stroke-width="2" stroke-miterlimit="10" x1="131" y1="14" x2="131" y2="16"/>
<line fill="#5BC0DE" stroke="#5BC0DE" stroke-width="2" stroke-miterlimit="10" x1="131" y1="17" x2="136" y2="17"/>
</svg>
